<?xml version="1.0" encoding="UTF-8"?>
<svg width="32px" height="42px" viewBox="0 0 32 42" version="1.1" xmlns="http://www.w3.org/2000/svg" xmlns:xlink="http://www.w3.org/1999/xlink">
    <!-- Generator: Sketch 39.1 (31720) - http://www.bohemiancoding.com/sketch -->
    <title>Shape</title>
    <desc>Created with Sketch.</desc>
    <defs></defs>
    <g id="Page-1" stroke="none" stroke-width="1" fill="none" fill-rule="evenodd">
        <g id="3-Login" transform="translate(-93.000000, -863.000000)" fill="#DADADA">
            <g id="Form" transform="translate(55.000000, 675.000000)">
                <g id="ic_lock" transform="translate(30.000000, 186.000000)">
                    <path d="M24,34 C26.2,34 28,32.2 28,30 C28,27.8 26.2,26 24,26 C21.8,26 20,27.8 20,30 C20,32.2 21.8,34 24,34 L24,34 Z M36,16 L34,16 L34,12 C34,6.48 29.52,2 24,2 C18.48,2 14,6.48 14,12 L14,16 L12,16 C9.8,16 8,17.8 8,20 L8,40 C8,42.2 9.8,44 12,44 L36,44 C38.2,44 40,42.2 40,40 L40,20 C40,17.8 38.2,16 36,16 L36,16 Z M17.8,12 C17.8,8.58 20.58,5.8 24,5.8 C27.42,5.8 30.2,8.58 30.2,12 L30.2,16 L17.8,16 L17.8,12 L17.8,12 Z M36,40 L12,40 L12,20 L36,20 L36,40 L36,40 Z" id="Shape"></path>
                </g>
            </g>
        </g>
    </g>
</svg>